# xmcd
#
# Track frame offsets: 
#        182
#        15177
#        42187
#        55630
#        82252
#        95542
#        119092
#        138632
#        158960
#        178405
#        213392
#        227050
#        249315
#        263945
#        277772
#        290152
#        310232
#
# Disc length: 4346 seconds
#
# Revision: 3
# Processed by: cddbd v1.5.2PL0 Copyright (c) Steve Scherf et al.
# Submitted via: ExactAudioCopyFreeDBPlugin 1.0
#
DISCID=f810f811
DTITLE=Lightnin' Hopkins - The Texas Bluesman
DYEAR=1989
DGENRE=Blues
TTITLE0=Mojo Hand
TTITLE1=Cotton
TTITLE2=Little Wail
TTITLE3=Hurricane Betsy
TTITLE4=Take Me Back, Baby
TTITLE5=Really Nothin' But The Blues
TTITLE6=Guitar Lightnin'
TTITLE7=Woke Up This Morning
TTITLE8=Shake Yourself
TTITLE9=California Showers
TTITLE10=Goin' Out
TTITLE11=Tom Moore Blues
TTITLE12=I Would If I Could
TTITLE13=At Home Blues
TTITLE14=Watch My Fingers
TTITLE15=Bud Russell Blues
TTITLE16=Cut Me Out Baby
EXTD=
EXTT0=
EXTT1=
EXTT2=
EXTT3=
EXTT4=
EXTT5=
EXTT6=
EXTT7=
EXTT8=
EXTT9=
EXTT10=
EXTT11=
EXTT12=
EXTT13=
EXTT14=
EXTT15=
EXTT16=
PLAYORDER=
